# xmcd
# 
# Track frame offsets:
#     150
#     1663
#     3951
#     14714
#     17531
#     24123
#     32929
#     64407
#     81908
#     84976
#     93011
#     98204
#     101910
#     107498
#     113410
#     127842
#     162295
#     164498
#     169949
#     197579
#     202540
#     207248
#     211905
#     216799
#     222600
#     265153
#     270634
#     302053
#     312517
# 
# Disc length: 4373
# 
# Revision: 1
# Processed by: cddbd v1.5.2PL0 Copyright (c) Steve Scherf et al.
# Submitted via: fre:ac v1.0.17
# 
DISCID=7a11131d
DTITLE=Durs Grünbein - Das Ohr in der Uhr
DYEAR=2001
DGENRE=Hörbuch
TTITLE0=Ansage
TTITLE1=Eine Regung
TTITLE2=Schädelbasislektion 1-5
TTITLE3=Der Cartesische Hund
TTITLE4=Alba
TTITLE5=Im Museum der Mißbildungen
TTITLE6=Variation auf kein Thema (1,3,4,12,14,22,24,29,34)
TTITLE7=Das Ohr in der Uhr (1-2)
TTITLE8=In der Provinz 1
TTITLE9=In der Provinz 2
TTITLE10=In der Provinz 3
TTITLE11=In der Provinz 4
TTITLE12=In der Provinz 5
TTITLE13=Der Misantroph auf Capri
TTITLE14=Vita Brevis
TTITLE15=Nicht für Zoologen. 4 Impromptus. 1. Von Tausend Toden - 2. Yoni - 3. Sous lees Mers - 4. Wenn die Mikroben drohen
TTITLE16=Physiognomischer Rest
TTITLE17=Mantegna vielleicht
TTITLE18=Vor einem alten Röntgenbild
TTITLE19=Nachbilder. Sonette 1
TTITLE20=Nachbilder. Sonette 4
TTITLE21=Nachbilder. Sonette 6
TTITLE22=Nachbilder. Sonette 9
TTITLE23=Nachbilder. Sonette 11
TTITLE24=Transpolonaise
TTITLE25=Daguerrotypie Baudelaire
TTITLE26=Abschied vom Fünften Zeitalter
TTITLE27=Berlin posthum
TTITLE28=Erklärte Nacht
EXTD=YEAR: 2001
EXTT0=
EXTT1=
EXTT2=
EXTT3=
EXTT4=
EXTT5=
EXTT6=
EXTT7=
EXTT8=
EXTT9=
EXTT10=
EXTT11=
EXTT12=
EXTT13=
EXTT14=
EXTT15=
EXTT16=
EXTT17=
EXTT18=
EXTT19=
EXTT20=
EXTT21=
EXTT22=
EXTT23=
EXTT24=
EXTT25=
EXTT26=
EXTT27=
EXTT28=
PLAYORDER=
